<?xml version="1.0" standalone="no"?>
<!DOCTYPE svg PUBLIC "-//W3C//DTD SVG 20010904//EN"
 "http://www.w3.org/TR/2001/REC-SVG-20010904/DTD/svg10.dtd">
<svg version="1.0" xmlns="http://www.w3.org/2000/svg"
 width="1538.000000pt" height="1221.000000pt" viewBox="0 0 1538.000000 1221.000000"
 preserveAspectRatio="xMidYMid meet">
<metadata>
Created by potrace 1.16, written by Peter Selinger 2001-2019
</metadata>
<g transform="translate(0.000000,1221.000000) scale(0.100000,-0.100000)"
fill="#000000" stroke="none">
<path d="M6280 8685 c0 -2376 -3 -3505 -10 -3505 -23 0 -183 116 -291 210
-135 118 -328 333 -431 480 -130 185 -275 476 -328 655 -6 22 -15 49 -20 60
-17 37 -49 171 -77 316 -26 138 -27 157 -28 459 0 306 1 319 28 455 16 77 35
163 43 190 45 148 95 297 112 336 11 24 34 76 51 116 53 123 205 378 258 431
7 7 13 17 13 22 0 5 10 20 23 34 12 13 33 39 47 56 65 81 104 124 244 258
l106 102 0 155 c0 107 -3 155 -11 155 -27 0 -279 -217 -394 -340 -24 -25 -59
-63 -80 -85 -42 -45 -202 -258 -254 -337 -38 -59 -141 -234 -141 -241 0 -3
-21 -49 -46 -103 -62 -135 -70 -153 -84 -199 -7 -22 -16 -44 -20 -50 -3 -5
-12 -30 -19 -55 -6 -25 -16 -54 -21 -65 -28 -61 -95 -372 -110 -507 -13 -125
-13 -515 0 -649 18 -175 73 -424 132 -589 16 -47 36 -103 43 -125 24 -75 111
-259 182 -384 47 -84 211 -325 258 -381 92 -109 118 -136 213 -234 109 -111
281 -252 422 -348 145 -98 265 -163 485 -263 119 -54 225 -90 400 -135 460
-118 960 -119 1413 -4 276 70 473 149 732 296 348 196 690 509 922 841 108
155 246 410 304 562 19 50 39 99 45 110 5 11 18 52 30 90 109 377 133 535 133
890 0 335 -30 532 -129 855 -70 225 -240 576 -361 744 -25 33 -51 70 -59 81
-102 143 -279 338 -411 453 -122 106 -207 172 -224 172 -6 0 -10 -54 -10 -154
l0 -154 58 -54 c124 -114 237 -234 302 -318 19 -25 37 -47 41 -50 3 -3 21 -27
40 -55 18 -27 38 -54 42 -60 26 -32 117 -181 117 -191 0 -7 4 -14 9 -16 11 -4
99 -189 144 -303 148 -377 204 -730 178 -1123 -6 -97 -23 -238 -36 -312 -29
-152 -27 -144 -89 -336 -163 -506 -474 -942 -905 -1267 -98 -74 -131 -96 -143
-97 -5 0 -8 536 -8 1191 0 801 -3 1197 -10 1210 -6 10 -15 19 -21 19 -8 0
-192 100 -259 141 -8 5 -40 22 -70 37 -30 16 -107 58 -170 94 -63 36 -122 68
-130 72 -8 4 -35 18 -60 31 l-45 25 -3 -1579 c-2 -1246 -5 -1581 -15 -1589
-11 -9 -205 -52 -234 -52 -10 0 -13 496 -13 2446 l0 2446 -22 19 c-13 10 -26
18 -30 19 -3 0 -75 39 -159 86 -85 48 -163 90 -174 95 -11 5 -27 13 -35 19
-13 8 -133 75 -293 164 -26 14 -52 26 -57 26 -7 0 -10 -959 -10 -2660 0 -2527
-1 -2660 -17 -2660 -10 1 -65 11 -123 24 l-105 22 -5 3474 c-5 3460 -5 3473
-25 3484 -11 6 -22 14 -25 17 -3 3 -18 12 -35 21 -39 19 -119 63 -233 127 -49
28 -95 51 -101 51 -6 0 -11 4 -11 9 0 5 -9 13 -21 16 -11 4 -71 36 -134 71
-62 35 -117 64 -123 64 -5 0 -15 7 -22 15 -42 50 -40 200 -40 -3490z"/>
<path d="M2670 3014 c-155 -17 -284 -57 -400 -125 -48 -28 -154 -112 -184
-147 -68 -77 -76 -87 -76 -99 0 -7 -4 -13 -9 -13 -5 0 -26 -35 -46 -77 -98
-205 -119 -303 -119 -543 0 -195 23 -335 74 -445 5 -11 16 -36 23 -56 39 -98
169 -258 269 -332 272 -201 759 -238 1073 -80 146 73 222 135 315 257 85 114
132 222 170 396 46 209 26 507 -46 690 -27 68 -99 206 -118 226 -6 6 -29 33
-51 59 -121 144 -345 259 -556 284 -152 18 -193 19 -319 5z m301 -344 c165
-53 270 -181 326 -395 23 -89 26 -119 26 -265 0 -146 -3 -177 -27 -267 -39
-152 -134 -298 -223 -344 -16 -8 -30 -17 -33 -21 -3 -3 -34 -16 -70 -28 -90
-31 -229 -31 -320 0 -36 12 -72 28 -81 36 -8 8 -20 14 -26 14 -18 0 -119 103
-138 140 -10 19 -23 42 -30 50 -18 22 -52 126 -66 200 -16 86 -16 346 0 440
13 80 44 168 73 212 10 14 18 31 18 36 0 17 103 118 150 147 116 73 282 91
421 45z"/>
<path d="M24 2977 c-2 -7 -3 -85 -2 -172 l3 -160 320 -5 320 -5 5 -800 5 -800
206 -3 c165 -2 209 0 218 11 8 10 12 233 13 803 l3 789 323 3 322 2 0 169 c0
145 -2 170 -16 175 -9 3 -398 6 -865 6 -685 0 -851 -3 -855 -13z"/>
<path d="M4123 2979 c-18 -19 -19 -1919 -1 -1937 9 -9 72 -12 220 -12 l208 0
0 344 c0 189 3 351 6 360 5 14 37 16 248 16 200 0 258 4 338 20 54 11 105 23
115 28 152 73 186 98 256 184 80 102 114 199 123 353 5 83 2 116 -16 189 -19
81 -53 164 -83 204 -28 38 -149 152 -160 152 -7 0 -18 5 -24 11 -24 24 -132
60 -223 75 -130 22 -988 33 -1007 13z m805 -349 c122 -11 174 -41 217 -125 26
-52 30 -68 29 -139 -2 -102 -25 -159 -86 -209 -60 -49 -121 -59 -348 -55
l-185 3 -2 254 c-1 171 1 259 9 268 13 16 221 18 366 3z"/>
<path d="M6435 2978 c-3 -7 -4 -447 -3 -978 l3 -965 215 0 215 0 3 383 2 382
160 0 c184 0 245 -10 295 -50 78 -62 108 -135 136 -325 20 -144 47 -275 59
-290 4 -5 11 -26 15 -45 4 -19 12 -41 17 -47 14 -17 468 -19 468 -3 0 6 -9 30
-21 53 -56 113 -79 209 -114 460 -22 157 -70 264 -147 331 -63 55 -66 56 -98
68 -34 11 -39 26 -12 34 9 3 51 21 92 41 191 94 278 270 251 508 -14 117 -52
199 -129 273 -54 53 -170 122 -206 122 -8 0 -17 4 -20 9 -8 12 -131 30 -281
41 -204 15 -895 13 -900 -2z m844 -348 c57 -6 96 -17 125 -34 82 -48 106 -97
106 -214 0 -126 -42 -187 -160 -231 -44 -17 -88 -22 -240 -27 -103 -4 -199 -4
-213 0 l-27 6 0 249 c0 136 3 251 7 254 10 10 307 8 402 -3z"/>
<path d="M8806 2982 c-9 -15 -86 -217 -86 -227 0 -5 -6 -21 -13 -35 -7 -14
-19 -47 -27 -75 -7 -27 -16 -54 -20 -60 -4 -5 -42 -109 -85 -230 -42 -121 -84
-234 -91 -252 -8 -17 -14 -37 -14 -45 -1 -7 -9 -31 -20 -53 -11 -22 -19 -44
-20 -48 0 -5 -6 -23 -14 -40 -8 -18 -23 -59 -34 -92 -34 -105 -93 -269 -108
-302 -8 -17 -14 -37 -14 -45 0 -7 -7 -26 -15 -41 -8 -16 -21 -50 -29 -75 -16
-50 -39 -114 -81 -227 -15 -38 -27 -77 -28 -85 -2 -13 30 -15 225 -18 260 -3
243 -8 267 93 7 27 16 54 21 60 4 5 11 26 15 45 4 19 13 49 20 65 7 17 29 82
49 145 20 63 40 121 44 128 7 9 78 12 326 10 l317 -3 18 -55 c10 -30 49 -149
87 -265 37 -115 73 -213 79 -217 17 -12 453 -10 460 3 6 9 -41 153 -110 339
-21 57 -59 163 -130 365 -78 219 -100 282 -126 347 -11 26 -19 52 -19 58 0 7
-6 26 -14 43 -7 18 -57 156 -111 307 -53 151 -101 284 -105 295 -5 11 -19 49
-30 85 -39 120 -11 110 -315 110 -145 0 -266 -4 -269 -8z m290 -459 c9 -32 32
-105 51 -163 18 -58 38 -123 44 -145 5 -22 14 -49 19 -60 13 -31 60 -189 60
-202 0 -10 -48 -13 -206 -13 -164 0 -204 3 -196 13 5 6 13 28 17 47 4 19 24
87 45 150 21 63 43 135 49 160 7 25 16 54 21 65 4 11 21 62 36 113 16 50 32
92 36 92 4 0 15 -26 24 -57z"/>
<path d="M9882 2982 c-9 -7 -12 -48 -10 -173 l3 -164 325 -5 325 -5 3 -803 2
-802 213 2 212 3 5 800 5 800 323 3 322 2 -2 173 -3 172 -855 2 c-470 2 -861
-1 -868 -5z"/>
<path d="M11836 2974 c-9 -24 -7 -1917 2 -1932 7 -10 158 -12 723 -10 l714 3
0 175 0 175 -503 3 -502 2 2 223 3 222 455 5 455 5 0 170 0 170 -458 3 -457 2
2 223 3 222 485 5 485 5 0 170 0 170 -701 3 c-634 2 -702 1 -708 -14z"/>
<path d="M13608 2984 c-5 -4 -8 -440 -8 -969 0 -839 2 -964 15 -975 11 -9 116
-11 457 -7 398 4 453 7 543 25 144 30 296 92 359 147 16 14 33 25 37 25 17 0
147 141 192 208 62 92 126 260 143 377 17 108 18 328 3 428 -20 136 -84 293
-159 393 -70 92 -204 205 -280 235 -14 6 -38 17 -55 24 -62 29 -160 56 -253
72 -75 12 -197 17 -542 20 -245 3 -448 1 -452 -3z m822 -354 c93 -10 198 -44
245 -80 72 -56 153 -160 170 -220 4 -14 11 -29 15 -35 16 -21 33 -165 32 -276
0 -126 -12 -200 -45 -294 -31 -87 -54 -122 -132 -200 -54 -54 -87 -77 -140
-100 -70 -29 -71 -29 -302 -33 l-233 -4 0 619 c0 341 3 623 7 626 10 10 275 8
383 -3z"/>
<path d="M2795 539 c-8 -12 -9 -11 28 -27 31 -13 29 9 27 -272 -1 -101 -5
-169 -12 -177 -6 -7 -21 -13 -34 -13 -15 0 -24 -6 -24 -15 0 -12 20 -15 120
-15 100 0 120 3 120 15 0 10 -11 15 -35 15 -44 0 -52 15 -57 115 -6 93 -3 105
23 105 24 0 34 -11 138 -143 l83 -107 59 0 c68 0 84 15 37 34 -18 8 -49 31
-68 52 -48 52 -130 155 -130 163 0 3 19 14 43 24 53 21 77 60 77 122 0 94 -84
135 -276 135 -69 0 -115 -4 -119 -11z m286 -55 c19 -20 24 -36 24 -76 0 -65
-30 -93 -110 -103 -31 -4 -59 -5 -62 -2 -6 6 -6 28 -4 140 l1 67 63 0 c55 0
67 -3 88 -26z"/>
<path d="M3815 539 c-8 -12 -9 -11 26 -26 35 -15 39 -41 39 -233 0 -200 -3
-218 -43 -228 -17 -4 -32 -13 -35 -20 -3 -9 47 -12 206 -12 l210 0 6 31 c15
77 -2 133 -23 77 -5 -13 -21 -34 -36 -48 -24 -22 -35 -25 -105 -25 -103 0
-109 7 -110 133 0 103 -1 102 73 81 26 -7 41 -18 47 -35 19 -48 30 -25 30 60
0 83 -12 118 -26 74 -10 -34 -45 -57 -86 -58 l-38 0 0 99 c0 117 1 118 109
106 81 -9 100 -18 113 -56 5 -16 17 -29 25 -29 12 0 14 8 9 38 -3 20 -6 47 -6
60 l0 22 -189 0 c-124 0 -192 -4 -196 -11z"/>
<path d="M5002 514 c-11 -22 -34 -77 -52 -124 -18 -47 -38 -98 -45 -115 -7
-16 -24 -59 -39 -95 -41 -100 -50 -114 -79 -128 -46 -22 -30 -32 53 -32 61 0
80 3 80 14 0 7 -10 16 -21 19 -20 5 -21 11 -16 56 3 28 13 62 23 76 15 24 21
25 103 25 l86 0 23 -55 c30 -76 29 -94 -8 -101 -16 -4 -30 -13 -30 -20 0 -11
23 -14 110 -14 69 0 110 4 110 10 0 6 -8 13 -17 17 -30 10 -54 36 -70 73 -8
19 -49 118 -90 220 -41 102 -80 191 -88 199 -11 11 -16 8 -33 -25z"/>
<path d="M5837 543 c-12 -11 -8 -23 8 -23 8 0 24 -9 35 -20 19 -19 20 -33 20
-207 0 -104 -3 -198 -6 -211 -4 -14 -17 -25 -37 -30 -17 -4 -32 -13 -35 -20
-3 -9 49 -12 216 -12 247 0 232 -5 232 81 0 37 -4 49 -15 49 -8 0 -15 -7 -15
-15 0 -8 -13 -29 -29 -47 -29 -32 -31 -33 -116 -33 -126 0 -125 -2 -125 229 0
99 3 191 6 203 3 12 17 24 30 27 13 4 24 13 24 21 0 12 -18 15 -93 15 -52 0
-97 -3 -100 -7z"/>
<path d="M7300 535 c0 -8 7 -15 15 -15 8 0 24 -9 35 -20 19 -19 20 -33 20
-213 0 -210 -6 -237 -56 -237 -15 0 -24 -6 -24 -15 0 -13 30 -15 209 -15 l209
0 6 31 c3 17 6 47 6 66 0 40 -18 41 -37 2 -26 -53 -49 -64 -134 -64 -102 0
-108 7 -109 133 0 102 -1 102 72 82 27 -8 39 -18 47 -41 18 -52 31 -22 31 72
0 84 -11 114 -25 69 -10 -31 -54 -60 -91 -60 l-34 0 0 99 c0 117 -1 116 109
105 71 -7 121 -35 121 -69 0 -8 7 -15 16 -15 14 0 16 8 11 50 -3 28 -9 55 -12
60 -4 6 -83 10 -196 10 -161 0 -189 -2 -189 -15z"/>
<path d="M8359 527 c-48 -32 -73 -86 -64 -142 5 -35 14 -52 47 -79 23 -20 57
-41 77 -47 41 -14 76 -34 109 -63 16 -14 22 -31 22 -61 0 -53 -27 -77 -95 -83
-42 -3 -57 1 -92 24 -27 18 -48 42 -58 66 -8 21 -19 38 -25 38 -16 0 -13 -125
4 -139 11 -9 15 -8 20 5 5 14 10 13 44 -6 50 -30 142 -31 198 -2 71 36 104
130 67 190 -25 40 -49 57 -139 101 -119 58 -148 102 -101 157 20 23 32 27 70
27 54 0 89 -25 112 -80 8 -18 19 -33 24 -33 15 0 14 127 -1 136 -6 4 -14 2
-16 -4 -5 -17 -37 -15 -52 3 -20 24 -110 20 -151 -8z"/>
<path d="M9166 534 c-3 -9 -6 -38 -6 -65 0 -37 4 -49 15 -49 8 0 15 9 15 19 0
11 10 32 23 46 19 22 31 26 82 28 33 0 66 -2 73 -7 9 -5 12 -59 12 -209 0
-221 -6 -247 -56 -247 -15 0 -24 -6 -24 -15 0 -13 21 -15 126 -15 93 0 125 3
122 12 -3 7 -17 15 -32 19 -53 14 -55 27 -56 246 0 129 4 204 10 208 6 4 38 6
72 6 49 0 65 -4 84 -22 13 -12 24 -33 24 -46 0 -14 6 -23 15 -23 19 0 21 100
3 118 -9 9 -79 12 -254 12 -211 0 -243 -2 -248 -16z"/>
<path d="M10363 503 c-12 -27 -47 -113 -78 -193 -91 -229 -100 -248 -129 -256
-14 -3 -26 -12 -26 -20 0 -11 18 -14 80 -14 63 0 80 3 80 14 0 8 -10 16 -22
18 -20 3 -23 9 -22 41 1 21 9 56 19 77 l18 40 89 0 89 0 20 -45 c26 -59 22
-109 -8 -113 -13 -2 -23 -10 -23 -18 0 -11 21 -14 105 -14 87 0 105 3 105 15
0 8 -7 15 -15 15 -16 0 -65 49 -65 65 -1 5 -9 28 -20 50 -11 22 -19 44 -20 48
0 5 -6 23 -14 40 -54 122 -66 151 -66 159 0 18 -59 138 -68 138 -5 0 -18 -21
-29 -47z"/>
<path d="M11117 543 c-10 -10 -8 -123 2 -123 5 0 12 11 15 25 12 49 41 66 113
68 46 0 67 -4 74 -14 5 -8 9 -100 9 -205 0 -179 -1 -193 -21 -218 -12 -15 -30
-26 -45 -26 -15 0 -24 -6 -24 -15 0 -13 21 -15 125 -15 104 0 125 2 125 15 0
9 -9 15 -22 15 -60 1 -68 29 -68 244 0 101 3 191 6 200 5 12 21 16 73 16 57 0
71 -3 88 -22 12 -13 23 -32 25 -43 2 -11 11 -21 21 -23 17 -3 18 1 12 55 -4
32 -9 61 -12 66 -5 9 -487 10 -496 0z"/>
<path d="M12180 536 c0 -8 11 -17 25 -20 15 -4 30 -18 35 -32 6 -14 10 -105
10 -202 0 -190 -7 -222 -48 -232 -13 -3 -23 -9 -23 -15 1 -6 77 -10 209 -10
l207 0 3 63 c2 49 0 62 -12 62 -8 0 -17 -13 -21 -29 -9 -40 -46 -62 -118 -69
-46 -4 -67 -1 -93 13 l-34 18 0 100 0 100 41 -7 c56 -9 79 -23 79 -46 0 -11 7
-20 15 -20 13 0 15 14 13 87 -2 50 -7 88 -13 88 -5 0 -11 -10 -13 -23 -4 -26
-49 -52 -92 -52 l-30 0 0 99 c0 117 -1 116 111 105 58 -6 75 -11 95 -33 13
-14 24 -31 24 -38 0 -7 5 -13 10 -13 6 0 10 27 10 60 l0 60 -195 0 c-160 0
-195 -3 -195 -14z"/>
</g>
</svg>
