<?xml version="1.0" standalone="no"?>
<!DOCTYPE svg PUBLIC "-//W3C//DTD SVG 20010904//EN"
 "http://www.w3.org/TR/2001/REC-SVG-20010904/DTD/svg10.dtd">
<svg version="1.0" xmlns="http://www.w3.org/2000/svg"
 width="1130.000000pt" height="1379.000000pt" viewBox="0 0 1130.000000 1379.000000"
 preserveAspectRatio="xMidYMid meet">
<metadata>
Created by potrace 1.16, written by Peter Selinger 2001-2019
</metadata>
<g transform="translate(0.000000,1379.000000) scale(0.100000,-0.100000)"
fill="#000000" stroke="none">
<path d="M3867 11763 c-4 -3 -7 -2001 -7 -4440 0 -3293 -3 -4433 -11 -4433
-11 0 -72 34 -94 53 -5 4 -35 26 -65 48 -30 22 -68 50 -85 62 -16 12 -42 33
-57 47 -16 14 -43 36 -60 50 -122 96 -425 432 -543 604 -150 217 -283 468
-379 716 -36 93 -96 278 -96 298 -1 9 -7 35 -15 57 -21 56 -72 338 -87 475
-16 149 -15 564 1 705 12 105 62 362 95 491 29 112 128 396 145 419 5 5 14 28
21 50 15 49 139 291 180 352 17 24 30 46 30 49 0 4 47 77 107 164 125 183 305
387 473 538 l109 97 0 203 c1 136 -2 202 -10 202 -5 0 -29 -15 -52 -32 -317
-247 -529 -463 -743 -755 -115 -158 -201 -291 -247 -385 -13 -26 -28 -53 -34
-60 -17 -23 -155 -329 -185 -412 -88 -244 -120 -356 -167 -578 -37 -172 -49
-272 -62 -505 -14 -266 13 -727 50 -848 5 -16 13 -50 16 -75 10 -66 69 -291
104 -395 73 -219 87 -253 193 -473 81 -167 127 -249 204 -366 10 -16 28 -44
39 -61 110 -178 355 -464 564 -658 53 -49 286 -239 331 -270 240 -163 357
-232 550 -325 248 -118 388 -172 550 -212 41 -10 89 -23 105 -28 54 -19 251
-62 326 -72 41 -5 130 -17 199 -26 90 -12 199 -17 390 -17 229 0 293 4 470 27
265 34 678 136 817 201 17 8 35 15 39 15 5 0 31 11 59 24 27 13 88 41 135 62
47 21 96 45 110 54 14 9 41 23 60 30 19 7 42 19 50 25 8 7 53 33 100 59 118
66 161 92 169 103 3 5 23 19 43 31 20 13 61 42 91 65 31 23 68 51 83 62 160
114 463 413 609 600 17 21 48 61 71 89 150 188 360 560 460 816 25 63 49 124
55 135 28 59 121 406 152 570 44 229 52 330 51 670 0 345 -11 472 -59 695 -37
170 -116 448 -145 515 -5 11 -19 44 -30 73 -59 154 -60 155 -157 357 -13 28
-37 73 -52 100 -16 28 -40 70 -54 95 -36 65 -167 259 -229 338 -198 253 -407
469 -603 625 -60 48 -117 94 -126 102 -9 8 -25 15 -37 15 -22 0 -22 -2 -22
-194 l0 -194 98 -88 c242 -219 465 -486 598 -715 6 -10 17 -27 26 -36 8 -10
23 -36 33 -58 10 -22 21 -42 24 -45 16 -12 181 -366 181 -387 0 -4 6 -20 14
-34 14 -27 62 -173 109 -329 37 -123 85 -389 98 -547 15 -180 6 -601 -16 -743
-35 -225 -90 -459 -143 -610 -62 -174 -74 -205 -86 -225 -7 -11 -19 -38 -26
-60 -7 -22 -18 -47 -25 -55 -6 -8 -18 -31 -25 -50 -8 -19 -43 -87 -78 -150
-63 -115 -72 -130 -124 -208 -16 -23 -28 -44 -28 -47 0 -6 -57 -83 -70 -95 -3
-3 -27 -34 -54 -70 -163 -220 -422 -473 -661 -646 -11 -8 -33 -24 -50 -37 -49
-37 -83 -57 -100 -57 -13 0 -15 160 -15 1524 l0 1524 -47 21 c-27 12 -57 28
-68 34 -11 7 -67 38 -125 70 -58 32 -112 63 -120 68 -8 5 -37 21 -65 35 -27
14 -63 33 -80 43 -16 10 -61 35 -100 56 -92 51 -149 83 -210 116 -108 61 -125
69 -140 69 -13 0 -15 -206 -15 -2000 0 -1987 0 -1999 -20 -2010 -11 -6 -44
-12 -72 -13 -29 -1 -58 -7 -64 -13 -15 -13 -150 -38 -164 -29 -7 4 -10 970
-10 3104 l0 3098 -302 166 c-167 91 -307 170 -313 174 -5 5 -21 13 -35 20 -14
6 -90 47 -169 91 -80 44 -151 78 -158 75 -11 -4 -13 -575 -11 -3369 3 -2985 1
-3364 -12 -3364 -8 0 -46 7 -85 16 -38 8 -95 19 -125 25 -30 6 -63 12 -72 15
-17 5 -18 223 -18 4400 l0 4394 -42 26 c-24 15 -46 32 -50 38 -4 6 -8 7 -8 3
0 -11 -80 34 -80 45 0 4 -4 7 -9 5 -16 -4 -300 157 -294 167 3 5 1 6 -5 2 -12
-7 -62 13 -62 26 0 4 -5 8 -11 8 -10 0 -282 146 -375 201 -17 10 -34 16 -37
12z"/>
</g>
</svg>
